<svg width="582" height="439" viewBox="0 0 582 439" fill="none" xmlns="http://www.w3.org/2000/svg">
<path d="M299.061 405.612L516.947 287.474C518.517 286.656 519.839 285.432 520.775 283.928C521.711 282.424 522.226 280.697 522.266 278.926C522.306 277.155 521.87 275.405 521.003 273.861C520.137 272.316 518.871 271.033 517.34 270.145L306.117 143.78C304.501 142.82 302.662 142.301 300.782 142.275C298.903 142.25 297.05 142.718 295.409 143.634L64.9221 272.81C63.3539 273.657 62.0438 274.913 61.1308 276.445C60.2177 277.977 59.7357 279.727 59.7357 281.511C59.7357 283.294 60.2177 285.044 61.1308 286.576C62.0438 288.108 63.3539 289.364 64.9221 290.211L270.441 405.408C274.81 407.846 279.723 409.142 284.725 409.178C289.727 409.213 294.657 407.987 299.061 405.612V405.612Z" fill="#00275E"/>
<path d="M262.176 230.145C262.176 230.145 218.104 253.691 207.672 309.869C207.672 309.869 250.595 318.97 308.067 271.398" fill="#EB773A"/>
<path d="M261.624 237.309C261.624 237.309 242.825 254.186 237.529 266.097C232.233 278.008 225.321 295.439 225.321 295.439C225.321 295.439 258.423 298.264 289.545 279.203C320.667 260.141 291 224.495 261.624 237.309Z" fill="#FFAE46"/>
<path d="M280.306 231.382C279.171 233.29 259.805 244.211 256.182 259.967L262.497 255.176C262.497 255.176 251.759 270.233 247.205 278.897C247.205 278.897 273.395 268.456 272.58 269.082L265.174 274.703C265.174 274.703 285.093 274.281 298.639 262.165C312.185 250.05 293.561 228.921 293.561 228.921L280.306 231.382Z" fill="#FAD374"/>
<path d="M338.753 231.237C338.753 231.237 335.334 253.443 328.015 258.904C320.697 264.364 296.936 282.464 296.936 282.464L292.993 277.251C292.993 277.251 309.377 248.026 312.272 235.125C315.168 222.223 338.753 231.237 338.753 231.237Z" fill="#68E1FD"/>
<path opacity="0.61" d="M338.753 231.237C338.753 231.237 335.334 253.443 328.015 258.904C320.697 264.364 296.936 282.464 296.936 282.464L292.993 277.251C292.993 277.251 309.377 248.026 312.272 235.125C315.168 222.223 338.753 231.237 338.753 231.237Z" fill="#363636"/>
<path d="M315.095 199.987C315.095 199.987 292.804 197.279 285.5 202.9C278.196 208.521 254.421 226.46 254.421 226.46L258.364 231.674C258.364 231.674 290.913 223.796 304.11 224.509C317.306 225.223 315.095 199.987 315.095 199.987Z" fill="#68E1FD"/>
<path opacity="0.61" d="M315.095 199.987C315.095 199.987 292.804 197.279 285.5 202.9C278.196 208.521 254.421 226.46 254.421 226.46L258.364 231.674C258.364 231.674 290.913 223.796 304.11 224.509C317.306 225.223 315.095 199.987 315.095 199.987Z" fill="#363636"/>
<path d="M422.11 162.71C428.002 153.498 432.761 143.606 436.282 133.252C436.282 133.252 423.332 133.397 403.981 139.164C405.523 149.022 413.395 156.885 422.11 162.71Z" fill="#68E1FD"/>
<path d="M370.198 202.731C376.347 198.069 377.04 188.62 371.745 181.627C366.451 174.633 357.174 172.744 351.026 177.406C344.877 182.069 344.184 191.518 349.479 198.511C354.773 205.504 364.05 207.394 370.198 202.731Z" fill="#68E1FD"/>
<path d="M481.503 98.3912C481.503 98.3912 359.574 128.738 297.62 218.583C297.62 218.583 283.07 234.12 290.098 242.755C297.126 251.39 320.551 244.517 320.551 244.517C320.551 244.517 397.535 222.645 481.503 98.3912Z" fill="#68E1FD"/>
<path d="M297.62 218.583C297.62 218.583 282.255 216.719 277.25 220.548C272.245 224.378 255.833 236.785 255.833 236.785L258.553 240.381C258.553 240.381 280.99 234.95 290.069 235.445C299.148 235.94 297.62 218.583 297.62 218.583Z" fill="#68E1FD"/>
<path d="M316.128 243.032C316.128 243.032 313.771 258.336 308.722 262.151C303.673 265.966 287.304 278.387 287.304 278.387L284.598 274.834C284.598 274.834 295.889 254.695 297.882 245.798C299.876 236.901 316.128 243.032 316.128 243.032Z" fill="#68E1FD"/>
<path opacity="0.29" d="M297.62 218.583C297.62 218.583 282.255 216.719 277.25 220.548C272.245 224.378 255.833 236.785 255.833 236.785L258.553 240.381C258.553 240.381 280.99 234.95 290.069 235.445C299.148 235.94 297.62 218.583 297.62 218.583Z" fill="#363636"/>
<path opacity="0.29" d="M316.128 243.032C316.128 243.032 313.771 258.336 308.722 262.151C303.673 265.966 287.304 278.387 287.304 278.387L284.598 274.834C284.598 274.834 295.889 254.695 297.882 245.798C299.876 236.901 316.128 243.032 316.128 243.032Z" fill="#363636"/>
<path d="M422.27 120.277C422.27 120.277 421.848 140.911 443.673 148.556L431.015 162.943C431.015 162.943 403.603 147.522 407.851 127.267L422.27 120.277Z" fill="#68E1FD"/>
<path d="M343.977 168.112C343.977 168.112 344.224 203.06 376.787 213.006L352.605 229.548C352.605 229.548 317.685 217.418 324.159 186.329L343.977 168.112Z" fill="#68E1FD"/>
<path d="M402.835 163.073C404.999 161.432 405.425 158.345 403.785 156.178C402.144 154.012 399.06 153.586 396.895 155.228C394.73 156.869 394.305 159.956 395.945 162.123C397.585 164.289 400.67 164.715 402.835 163.073Z" fill="#68E1FD"/>
<path d="M384.976 188.854C390.646 184.598 391.795 176.548 387.542 170.873C383.29 165.198 375.246 164.048 369.576 168.304C363.906 172.56 362.757 180.61 367.009 186.285C371.262 191.96 379.306 193.11 384.976 188.854Z" fill="#68E1FD"/>
<path opacity="0.61" d="M422.27 120.277C422.27 120.277 421.848 140.911 443.673 148.556L431.015 162.943C431.015 162.943 403.603 147.522 407.851 127.267L422.27 120.277Z" fill="#606060"/>
<path opacity="0.61" d="M343.977 168.112C343.977 168.112 344.224 203.06 376.787 213.006L352.605 229.548C352.605 229.548 317.685 217.418 324.159 186.329L343.977 168.112Z" fill="#606060"/>
<path opacity="0.61" d="M402.835 163.073C404.999 161.432 405.425 158.345 403.785 156.178C402.144 154.012 399.06 153.586 396.895 155.228C394.73 156.869 394.305 159.956 395.945 162.123C397.585 164.289 400.67 164.715 402.835 163.073Z" fill="#606060"/>
<path opacity="0.61" d="M384.976 188.854C390.646 184.598 391.795 176.548 387.542 170.873C383.29 165.198 375.246 164.048 369.576 168.304C363.906 172.56 362.757 180.61 367.009 186.285C371.262 191.96 379.306 193.11 384.976 188.854Z" fill="#606060"/>
<path d="M445.666 252.89C445.281 252.89 444.911 253.043 444.638 253.316C444.365 253.589 444.211 253.96 444.211 254.346C444.211 254.732 444.365 255.102 444.638 255.376C444.911 255.649 445.281 255.802 445.666 255.802C446.052 255.802 446.422 255.649 446.695 255.376C446.968 255.102 447.121 254.732 447.121 254.346C447.121 253.96 446.968 253.589 446.695 253.316C446.422 253.043 446.052 252.89 445.666 252.89Z" fill="white"/>
<path d="M371.956 310.889V311.821C371.956 312.207 372.11 312.577 372.382 312.85C372.655 313.123 373.025 313.277 373.411 313.277C373.797 313.277 374.167 313.123 374.44 312.85C374.713 312.577 374.866 312.207 374.866 311.821V310.889C374.866 310.502 374.713 310.132 374.44 309.859C374.167 309.586 373.797 309.432 373.411 309.432C373.025 309.432 372.655 309.586 372.382 309.859C372.11 310.132 371.956 310.502 371.956 310.889Z" fill="white"/>
<path d="M270.048 334.071V335.003C270.048 335.389 270.201 335.759 270.474 336.032C270.747 336.305 271.117 336.459 271.503 336.459C271.889 336.459 272.259 336.305 272.532 336.032C272.805 335.759 272.958 335.389 272.958 335.003V334.071C272.958 333.684 272.805 333.314 272.532 333.041C272.259 332.768 271.889 332.615 271.503 332.615C271.117 332.615 270.747 332.768 270.474 333.041C270.201 333.314 270.048 333.684 270.048 334.071Z" fill="white"/>
<path d="M365.074 263.083C364.688 263.083 364.318 263.236 364.045 263.509C363.772 263.782 363.619 264.153 363.619 264.539C363.619 264.925 363.772 265.296 364.045 265.569C364.318 265.842 364.688 265.995 365.074 265.995C365.46 265.995 365.83 265.842 366.103 265.569C366.376 265.296 366.529 264.925 366.529 264.539C366.529 264.153 366.376 263.782 366.103 263.509C365.83 263.236 365.46 263.083 365.074 263.083Z" fill="white"/>
<path d="M190.911 260.272C190.525 260.272 190.155 260.426 189.882 260.699C189.609 260.972 189.456 261.342 189.456 261.729C189.456 262.115 189.609 262.485 189.882 262.758C190.155 263.031 190.525 263.185 190.911 263.185C191.296 263.185 191.667 263.031 191.939 262.758C192.212 262.485 192.366 262.115 192.366 261.729C192.366 261.342 192.212 260.972 191.939 260.699C191.667 260.426 191.296 260.272 190.911 260.272Z" fill="white"/>
<path d="M125.523 264.539V265.471C125.523 265.857 125.676 266.228 125.949 266.501C126.222 266.774 126.592 266.927 126.978 266.927C127.364 266.927 127.734 266.774 128.007 266.501C128.28 266.228 128.433 265.857 128.433 265.471V264.539C128.433 264.153 128.28 263.782 128.007 263.509C127.734 263.236 127.364 263.083 126.978 263.083C126.592 263.083 126.222 263.236 125.949 263.509C125.676 263.782 125.523 264.153 125.523 264.539Z" fill="white"/>
<path d="M156.631 310.364C156.245 310.364 155.875 310.518 155.602 310.791C155.329 311.064 155.176 311.434 155.176 311.821C155.176 312.207 155.329 312.577 155.602 312.85C155.875 313.123 156.245 313.277 156.631 313.277C157.017 313.277 157.387 313.123 157.66 312.85C157.932 312.577 158.086 312.207 158.086 311.821C158.086 311.434 157.932 311.064 157.66 310.791C157.387 310.518 157.017 310.364 156.631 310.364Z" fill="white"/>
<path d="M204.806 227.844C204.42 227.844 204.05 227.997 203.777 228.27C203.504 228.543 203.351 228.914 203.351 229.3C203.351 229.686 203.504 230.057 203.777 230.33C204.05 230.603 204.42 230.756 204.806 230.756C205.192 230.756 205.562 230.603 205.835 230.33C206.108 230.057 206.261 229.686 206.261 229.3C206.261 228.914 206.108 228.543 205.835 228.27C205.562 227.997 205.192 227.844 204.806 227.844Z" fill="white"/>
<path d="M276.13 181.494C275.744 181.494 275.374 181.648 275.101 181.921C274.828 182.194 274.675 182.564 274.675 182.95C274.675 183.337 274.828 183.707 275.101 183.98C275.374 184.253 275.744 184.407 276.13 184.407C276.516 184.407 276.886 184.253 277.159 183.98C277.432 183.707 277.585 183.337 277.585 182.95C277.585 182.564 277.432 182.194 277.159 181.921C276.886 181.648 276.516 181.494 276.13 181.494Z" fill="white"/>
<path d="M319.678 363.208C319.292 363.208 318.922 363.362 318.649 363.635C318.376 363.908 318.223 364.278 318.223 364.665C318.223 365.051 318.376 365.421 318.649 365.694C318.922 365.967 319.292 366.121 319.678 366.121C320.064 366.121 320.434 365.967 320.707 365.694C320.98 365.421 321.133 365.051 321.133 364.665C321.133 364.278 320.98 363.908 320.707 363.635C320.434 363.362 320.064 363.208 319.678 363.208Z" fill="white"/>
<path d="M416.014 281.358C406.658 281.358 406.629 295.919 416.014 295.919C425.398 295.919 425.398 281.358 416.014 281.358Z" fill="#FFAE46"/>
<path d="M154.783 273.014C145.427 273.014 145.398 287.576 154.783 287.576C164.168 287.576 164.153 273.014 154.783 273.014Z" fill="#FFAE46"/>
<path d="M294.245 368.786C292.88 367.421 291.03 366.654 289.101 366.654C287.172 366.654 285.322 367.421 283.958 368.786C282.62 370.171 281.861 372.014 281.834 373.94V374.872C281.855 376.8 282.615 378.645 283.958 380.027C285.322 381.392 287.172 382.159 289.101 382.159C291.03 382.159 292.88 381.392 294.245 380.027C295.582 378.642 296.342 376.798 296.369 374.872V373.94C296.348 372.013 295.587 370.168 294.245 368.786V368.786Z" fill="#00AEE1"/>
<path d="M161.141 173.98C178.659 173.98 192.86 159.768 192.86 142.236C192.86 124.704 178.659 110.492 161.141 110.492C143.623 110.492 129.422 124.704 129.422 142.236C129.422 159.768 143.623 173.98 161.141 173.98Z" fill="#68E1FD"/>
<path d="M186.938 124.777C190.285 123.853 193.687 123.143 197.123 122.651C198.849 122.389 200.588 122.223 202.332 122.156C204.143 122.054 205.959 122.162 207.745 122.476C208.778 122.651 209.766 123.027 210.655 123.583C211.191 123.936 211.647 124.397 211.993 124.937C212.358 125.526 212.568 126.197 212.605 126.888C212.617 128.031 212.353 129.161 211.833 130.179C211.422 131.045 210.935 131.874 210.378 132.655C208.172 135.49 205.621 138.039 202.783 140.241C197.337 144.58 191.552 148.476 185.483 151.89C179.48 155.364 173.297 158.519 166.961 161.341C160.624 164.21 154.118 166.69 147.479 168.767C144.134 169.836 140.734 170.726 137.294 171.432C133.769 172.206 130.188 172.698 126.585 172.903C124.739 172.998 122.889 172.924 121.056 172.684C119.096 172.462 117.187 171.911 115.411 171.054C114.434 170.583 113.54 169.959 112.763 169.204C111.89 168.34 111.262 167.26 110.944 166.073C110.663 164.94 110.663 163.756 110.944 162.622C111.183 161.637 111.55 160.688 112.035 159.797C113.953 156.699 116.418 153.975 119.31 151.759C121.981 149.546 124.839 147.568 127.851 145.847C125.355 148.154 122.976 150.584 120.721 153.128C118.466 155.535 116.597 158.276 115.178 161.254C114.606 162.389 114.472 163.695 114.8 164.923C114.987 165.379 115.288 165.78 115.673 166.088C116.17 166.476 116.719 166.794 117.302 167.035C120.197 167.995 123.27 168.288 126.294 167.894C132.884 167.127 139.369 165.633 145.631 163.438C152.033 161.37 158.275 158.778 164.546 156.157C176.955 150.837 188.832 144.352 200.019 136.79C202.706 134.932 205.188 132.794 207.425 130.412C207.921 129.854 208.369 129.255 208.763 128.621C209.073 128.134 209.281 127.589 209.374 127.019C209.388 126.825 209.349 126.631 209.262 126.457C209.175 126.283 209.043 126.135 208.88 126.029C208.33 125.629 207.714 125.328 207.061 125.141C203.843 124.366 200.531 124.053 197.225 124.209C193.777 124.223 190.358 124.427 186.938 124.777Z" fill="#8CC63F"/>
</svg>
